<?xml version="1.0" encoding="utf-8"?>
<!-- Generator: Adobe Illustrator 26.0.1, SVG Export Plug-In . SVG Version: 6.00 Build 0)  -->
<svg version="1.1" id="Layer_1" xmlns="http://www.w3.org/2000/svg" xmlns:xlink="http://www.w3.org/1999/xlink" x="0px" y="0px"
	 viewBox="0 0 1000 1000" style="enable-background:new 0 0 1000 1000;" xml:space="preserve">
<style type="text/css">
	.st0{fill:#FFFFFF;}
</style>
<g id="sun_and_flashing">
	<g>
		<g>
			<path class="st0" d="M622.8,19.4c-15.3,0-27.7,12.5-27.7,27.9l0.3,74.9c0,15.4,12.5,27.7,27.9,27.7c15.3,0,27.8-12.6,27.6-27.9
				l-0.2-74.9C650.6,31.7,638.1,19.3,622.8,19.4z"/>
			<path class="st0" d="M625.6,737.1c15.3,0,27.7-12.5,27.7-27.9l-0.3-74.9c-0.1-15.4-12.5-27.8-27.9-27.7
				c-15.4,0.1-27.8,12.6-27.6,27.9l0.2,74.9C597.7,724.8,610.2,737.1,625.6,737.1z"/>
			<path class="st0" d="M983,376.8c0-15.3-12.5-27.7-27.9-27.7l-74.9,0.3c-15.4,0-27.7,12.5-27.7,27.9c0,15.4,12.6,27.7,27.9,27.7
				l74.9-0.3C970.7,404.7,983.1,392.2,983,376.8z"/>
			<path class="st0" d="M878.9,631c10.8-10.9,10.8-28.4-0.1-39.2l-53.2-52.8c-10.9-10.9-28.5-10.8-39.3,0.1
				c-10.8,10.9-10.8,28.5,0.2,39.3l53.2,52.8C850.5,642,868.1,641.9,878.9,631z"/>
			<path class="st0" d="M876.9,123.5c-10.9-10.8-28.5-10.8-39.3,0.2l-52.8,53.2c-10.8,10.9-10.7,28.5,0.1,39.3
				c10.9,10.8,28.5,10.8,39.3-0.2l52.8-53.1C887.9,151.9,887.8,134.3,876.9,123.5z"/>
		</g>
		<path class="st0" d="M622.2,545.4c92.3,0,167.1-74.8,167.1-167.1c0-92.3-74.8-167.1-167.1-167.1c-13,0-25.6,1.6-37.7,4.4
			c-23.3-77.1-94.7-133.2-179.4-133.2c-103.5,0-187.4,83.9-187.4,187.4c0,3.8,0.3,7.6,0.6,11.4c-11.3-3-23.1-4.8-35.3-4.8
			c-74.3,0-134.6,60.3-134.6,134.6c0,74.3,60.3,134.6,134.6,134.6H622.2z"/>
	</g>
	<polygon class="st0" points="341.1,606.6 485.8,606.6 413.5,743.6 528.3,743.6 329.6,978 375.9,836.2 243.7,836.2 	"/>
</g>
</svg>
