<?xml version="1.0" encoding="utf-8"?>
<!-- Generator: Adobe Illustrator 26.0.1, SVG Export Plug-In . SVG Version: 6.00 Build 0)  -->
<svg version="1.1" id="Layer_1" xmlns="http://www.w3.org/2000/svg" xmlns:xlink="http://www.w3.org/1999/xlink" x="0px" y="0px"
	 viewBox="0 0 1000 1000" style="enable-background:new 0 0 1000 1000;" xml:space="preserve">
<style type="text/css">
	.st0{fill:#FFFFFF;}
</style>
<g id="sleet">
	<path class="st0" d="M759.2,625c119.8,0,216.9-97.1,216.9-216.9c0-119.8-97.1-216.9-216.9-216.9c-16.8,0-33.2,2.1-48.9,5.8
		C680.1,97,587.4,24.2,477.6,24.2c-134.3,0-243.1,108.9-243.1,243.1c0,5,0.4,9.8,0.7,14.7c-14.6-3.9-29.9-6.2-45.8-6.2
		c-96.4,0-174.6,78.2-174.6,174.6S92.9,625,189.4,625H759.2z"/>
	<path class="st0" d="M395.9,848.4c0,62.2-50.4,112.6-112.7,112.6c-62.2,0-112.7-50.5-112.7-112.6c0-62.3,50.4-112.7,112.7-112.7
		C345.5,735.8,395.9,786.2,395.9,848.4z"/>
	<path class="st0" d="M799.6,848.4c0,62.2-50.4,112.6-112.7,112.6c-62.2,0-112.7-50.5-112.7-112.6c0-62.3,50.4-112.7,112.7-112.7
		C749.1,735.8,799.6,786.2,799.6,848.4z"/>
</g>
</svg>
