<?xml version="1.0" encoding="utf-8"?>
<!-- Generator: Adobe Illustrator 26.0.1, SVG Export Plug-In . SVG Version: 6.00 Build 0)  -->
<svg version="1.1" id="Layer_1" xmlns="http://www.w3.org/2000/svg" xmlns:xlink="http://www.w3.org/1999/xlink" x="0px" y="0px"
	 viewBox="0 0 1000 1000" style="enable-background:new 0 0 1000 1000;" xml:space="preserve">
<style type="text/css">
	.st0{fill:#FFFFFF;}
</style>
<g id="rain_with_sleet">
	<g>
		<path class="st0" d="M759.2,613.5c118.9,0,215.3-96.4,215.3-215.3c0-118.9-96.4-215.3-215.3-215.3c-16.7,0-32.9,2.1-48.5,5.7
			C680.7,89.4,588.6,17,479.6,17c-133.3,0-241.4,108.1-241.4,241.4c0,5,0.4,9.8,0.7,14.6c-14.5-3.9-29.7-6.2-45.5-6.2
			c-95.7,0-173.4,77.6-173.4,173.4c0,95.8,77.6,173.3,173.4,173.3H759.2z"/>
	</g>
	<g>
		<path class="st0" d="M205.8,836.3c-38.7,30.7-28,94,9.5,126.2c37.5,32.2,101.6,33.4,126.2-9.4c30-52.3,78.1-228,78.1-228
			S253,798.9,205.8,836.3z"/>
		<path class="st0" d="M813.1,855.6c0,61.7-50.1,111.8-111.9,111.8s-111.9-50.1-111.9-111.8c0-61.8,50.1-111.9,111.9-111.9
			S813.1,793.8,813.1,855.6z"/>
	</g>
</g>
</svg>
