<?xml version="1.0" encoding="utf-8"?>
<!-- Generator: Adobe Illustrator 26.0.1, SVG Export Plug-In . SVG Version: 6.00 Build 0)  -->
<svg version="1.1" id="Layer_1" xmlns="http://www.w3.org/2000/svg" xmlns:xlink="http://www.w3.org/1999/xlink" x="0px" y="0px"
	 viewBox="0 0 1000 1000" style="enable-background:new 0 0 1000 1000;" xml:space="preserve">
<style type="text/css">
	.st0{fill:#FFFFFF;}
</style>
<g id="raining">
	<path class="st0" d="M739.7,566C848.6,566,937,477.6,937,368.7c0-108.9-88.4-197.3-197.3-197.3c-15.3,0-30.2,1.9-44.5,5.2
		c-27.5-91-111.8-157.2-211.7-157.2c-122.1,0-221.2,99-221.2,221.2c0,4.5,0.4,8.9,0.7,13.4c-13.3-3.6-27.2-5.7-41.7-5.7
		c-87.7,0-158.9,71.1-158.9,158.8S133.6,566,221.4,566H739.7z"/>
	<g>
		<g>
			<path class="st0" d="M228,733.1c-21.5,17-15.5,52.2,5.2,70c20.8,17.9,56.4,18.5,70-5.3c16.6-29,43.3-126.4,43.3-126.4
				S254.2,712.3,228,733.1z"/>
			<path class="st0" d="M374.1,733.1c-21.5,17-15.5,52.2,5.2,70c20.8,17.9,56.4,18.5,70-5.3c16.6-29,43.3-126.4,43.3-126.4
				S400.4,712.3,374.1,733.1z"/>
			<path class="st0" d="M520.3,733.1c-21.5,17-15.5,52.2,5.2,70c20.8,17.9,56.4,18.5,70-5.3c16.6-29,43.3-126.4,43.3-126.4
				S546.5,712.3,520.3,733.1z"/>
			<path class="st0" d="M666.4,733.1c-21.5,17-15.5,52.2,5.3,70c20.8,17.9,56.4,18.5,70-5.3c16.6-29,43.3-126.4,43.3-126.4
				S692.7,712.3,666.4,733.1z"/>
		</g>
		<g>
			<path class="st0" d="M388.1,905.5c-19.2,15.3-13.9,46.7,4.7,62.8c18.6,16.1,50.5,16.6,62.7-4.7c14.9-26,38.8-113.3,38.8-113.3
				S411.6,886.9,388.1,905.5z"/>
			<path class="st0" d="M519.1,905.5c-19.3,15.3-13.9,46.7,4.7,62.8c18.7,16.1,50.5,16.6,62.7-4.7c14.9-26,38.9-113.3,38.9-113.3
				S542.7,886.9,519.1,905.5z"/>
		</g>
	</g>
</g>
</svg>
