<?xml version="1.0" encoding="utf-8"?>
<!-- Generator: Adobe Illustrator 26.0.1, SVG Export Plug-In . SVG Version: 6.00 Build 0)  -->
<svg version="1.1" id="Layer_1" xmlns="http://www.w3.org/2000/svg" xmlns:xlink="http://www.w3.org/1999/xlink" x="0px" y="0px"
	 viewBox="0 0 1000 1000" style="enable-background:new 0 0 1000 1000;" xml:space="preserve">
<style type="text/css">
	.st0{fill:#FFFFFF;}
</style>
<g id="snowy">
	<path class="st0" d="M746.9,605.3c112.2,0,203.1-91,203.1-203.1C950,290,859,199,746.9,199c-15.8,0-31.1,2-45.9,5.4
		C672.8,110.8,585.9,42.5,483,42.5c-125.8,0-227.8,102-227.8,227.8c0,4.6,0.4,9.2,0.7,13.8c-13.7-3.7-28.1-5.9-42.9-5.9
		c-90.4,0-163.5,73.2-163.5,163.6s73.2,163.6,163.5,163.6H746.9z"/>
	<path class="st0" d="M621.1,822.2h-61.9l43.8-43.8c9.6-9.6,9.6-25.2,0-34.8c-9.6-9.6-25.2-9.6-34.8,0l-43.8,43.8v-61.9
		c0-13.6-11.1-24.6-24.6-24.6c-13.6,0-24.6,11-24.6,24.6v61.9l-43.8-43.8c-9.6-9.6-25.2-9.6-34.8,0c-9.6,9.6-9.6,25.2,0,34.8
		l43.8,43.8h-61.9c-13.6,0-24.6,11-24.6,24.6c0,13.6,11,24.6,24.6,24.6h61.9l-43.8,43.8c-9.6,9.6-9.6,25.2,0,34.8
		c9.6,9.6,25.2,9.6,34.8,0l43.8-43.8v62c0,13.6,11,24.6,24.6,24.6c13.6,0,24.6-11,24.6-24.6v-61.9l43.8,43.8
		c9.7,9.6,25.2,9.6,34.8,0c9.6-9.6,9.6-25.2,0-34.8l-43.8-43.8h62c13.6,0,24.6-11,24.6-24.6C645.7,833.2,634.7,822.2,621.1,822.2z"
		/>
</g>
</svg>
