<?xml version="1.0" encoding="utf-8"?>
<!-- Generator: Adobe Illustrator 26.0.1, SVG Export Plug-In . SVG Version: 6.00 Build 0)  -->
<svg version="1.1" id="Layer_1" xmlns="http://www.w3.org/2000/svg" xmlns:xlink="http://www.w3.org/1999/xlink" x="0px" y="0px"
	 viewBox="0 0 1000 1000" style="enable-background:new 0 0 1000 1000;" xml:space="preserve">
<style type="text/css">
	.st0{fill:#FFFFFF;}
</style>
<g id="rain_and_snow">
	<path class="st0" d="M744.2,604.9c115.4,0,208.9-93.6,208.9-208.9c0-115.4-93.5-208.9-208.9-208.9c-16.2,0-32,2-47.1,5.5
		C668.1,96.2,578.7,26,472.9,26c-129.4,0-234.3,104.9-234.3,234.3c0,4.8,0.4,9.5,0.7,14.2c-14.1-3.8-28.9-6-44.1-6
		C102.3,268.4,27,343.7,27,436.6s75.3,168.2,168.2,168.2H744.2z"/>
	<g>
		<path class="st0" d="M589.4,827.6c-37.6,29.8-27.2,91.2,9.1,122.4c36.3,31.2,98.6,32.4,122.5-9.1c29.1-50.7,75.8-221.2,75.8-221.2
			S635.2,791.3,589.4,827.6z"/>
		<path class="st0" d="M412,825.1H359l37.4-37.4c8.2-8.2,8.2-21.6,0-29.8c-8.2-8.2-21.6-8.2-29.8,0l-37.4,37.4v-52.8
			c0-11.7-9.5-21.1-21.1-21.1c-11.6,0-21,9.4-21,21.1v52.9l-37.4-37.4c-8.2-8.2-21.5-8.2-29.8,0c-8.2,8.3-8.2,21.6,0,29.8l37.4,37.4
			h-52.9c-11.7,0-21.1,9.4-21.1,21.1c0,11.6,9.4,21,21.1,21h52.9L220,904.7c-8.2,8.2-8.2,21.6,0,29.7c8.2,8.2,21.5,8.2,29.7,0
			l37.5-37.4v53c0,11.6,9.4,21,21,21c11.6,0,21.1-9.4,21.1-21v-53l37.4,37.5c8.3,8.2,21.6,8.2,29.8,0c8.2-8.2,8.2-21.6,0-29.8
			L359,867.2h53c11.6,0,21-9.4,21-21C433,834.5,423.6,825.1,412,825.1z"/>
	</g>
</g>
</svg>
