<?xml version="1.0" encoding="utf-8"?>
<!-- Generator: Adobe Illustrator 26.0.1, SVG Export Plug-In . SVG Version: 6.00 Build 0)  -->
<svg version="1.1" id="Layer_1" xmlns="http://www.w3.org/2000/svg" xmlns:xlink="http://www.w3.org/1999/xlink" x="0px" y="0px"
	 viewBox="0 0 1000 1000" style="enable-background:new 0 0 1000 1000;" xml:space="preserve">
<style type="text/css">
	.st0{fill:#FFFFFF;}
</style>
<g id="sun">
	<path class="st0" d="M742.5,468.5c19.6,133.4-72.7,257.4-206,277c-133.4,19.6-257.4-72.7-277-206c-19.6-133.4,72.7-257.4,206-277
		C598.8,242.9,722.9,335.1,742.5,468.5z"/>
	<g>
		<g>
			<path class="st0" d="M499,12c-21,0-38,17.1-37.9,38.2l0.4,102.7c0.1,21.1,17.2,38,38.2,38c21.1-0.1,38.1-17.2,37.9-38.3
				l-0.3-102.7C537.2,28.8,520.1,11.9,499,12z"/>
			<path class="st0" d="M502.9,996.1c21-0.1,38-17.1,37.9-38.2l-0.4-102.7c-0.1-21.1-17.2-38-38.2-38c-21.1,0.1-38.1,17.2-37.9,38.2
				l0.3,102.7C464.7,979.2,481.8,996.2,502.9,996.1z"/>
		</g>
		<g>
			<path class="st0" d="M8.9,505.9c0,21,17.1,38,38.2,38l102.7-0.4c21.1-0.1,38-17.2,38-38.2c-0.1-21.1-17.2-38-38.3-37.9
				l-102.7,0.3C25.8,467.8,8.8,484.9,8.9,505.9z"/>
			<path class="st0" d="M993,502.1c-0.1-21-17.1-38-38.2-37.9l-102.7,0.4c-21.1,0.1-38,17.2-38,38.2c0.1,21.1,17.2,38.1,38.3,37.9
				l102.7-0.3C976.1,540.3,993.1,523.2,993,502.1z"/>
		</g>
	</g>
	<g>
		<g>
			<path class="st0" d="M151.7,157.5c-14.9,14.9-14.8,39,0.2,53.8l72.9,72.4c15,14.9,39,14.7,53.9-0.2c14.8-14.9,14.7-39.1-0.2-53.8
				l-72.9-72.4C190.6,142.4,166.5,142.5,151.7,157.5z"/>
			<path class="st0" d="M850.3,850.5c14.8-14.9,14.8-39-0.2-53.8l-72.9-72.4c-15-14.9-39-14.7-53.9,0.2
				c-14.9,14.9-14.8,39.1,0.2,53.9l72.9,72.4C811.3,865.7,835.4,865.6,850.3,850.5z"/>
		</g>
		<g>
			<path class="st0" d="M154.4,853.3c14.9,14.8,39,14.8,53.9-0.2l72.3-72.9c14.9-15,14.7-39-0.2-53.9c-14.9-14.8-39.1-14.7-53.9,0.2
				l-72.4,72.9C139.3,814.4,139.4,838.5,154.4,853.3z"/>
			<path class="st0" d="M847.5,154.8c-14.9-14.8-39-14.8-53.8,0.2l-72.4,72.9c-14.9,15-14.7,39,0.2,53.9c15,14.8,39.1,14.7,53.8-0.3
				l72.4-72.9C862.6,193.7,862.5,169.6,847.5,154.8z"/>
		</g>
	</g>
</g>
</svg>
