<?xml version="1.0" encoding="utf-8"?>
<!-- Generator: Adobe Illustrator 26.0.1, SVG Export Plug-In . SVG Version: 6.00 Build 0)  -->
<svg version="1.1" id="Layer_1" xmlns="http://www.w3.org/2000/svg" xmlns:xlink="http://www.w3.org/1999/xlink" x="0px" y="0px"
	 viewBox="0 0 1000 1000" style="enable-background:new 0 0 1000 1000;" xml:space="preserve">
<style type="text/css">
	.st0{fill:#FFFFFF;}
</style>
<g id="temperature">
	<path class="st0" d="M502.3,380.4c-30.2,0-54.8,24.6-54.8,54.9v195.1l-8.1,6.1c-26.6,20-41.9,50.6-41.9,83.7
		c0,57.8,47,104.8,104.9,104.8c57.8,0,104.9-47,104.9-104.8c0-33.1-15.3-63.6-41.9-83.7l-8.1-6.1V435.2
		C557.2,404.9,532.6,380.4,502.3,380.4z"/>
	<path class="st0" d="M502.3,986C354.9,986,235,866.1,235,718.7c0-78.1,33.3-150.5,91.9-201.4V195.4C326.9,98.7,405.6,20,502.3,20
		c96.7,0,175.4,78.7,175.4,175.4v321.9c58.6,50.9,91.9,123.2,91.9,201.4C769.7,866.1,649.7,986,502.3,986z M502.3,94.8
		c-55.5,0-100.7,45.1-100.7,100.7v358.3l-14.9,11.2c-48.9,36.9-77,92.9-77,153.7c0,106.2,86.4,192.6,192.6,192.6
		c106.2,0,192.6-86.4,192.6-192.6c0-60.8-28.1-116.9-77-153.7L603,553.8V195.4C603,139.9,557.9,94.8,502.3,94.8z"/>
	<g>
		<rect x="664.2" y="220.4" class="st0" width="30.4" height="52.9"/>
		<rect x="664.2" y="327.4" class="st0" width="30.4" height="52.9"/>
		<rect x="664.2" y="434.5" class="st0" width="30.4" height="53"/>
	</g>
</g>
</svg>
