<?xml version="1.0" encoding="utf-8"?>
<!-- Generator: Adobe Illustrator 26.0.1, SVG Export Plug-In . SVG Version: 6.00 Build 0)  -->
<svg version="1.1" id="Layer_1" xmlns="http://www.w3.org/2000/svg" xmlns:xlink="http://www.w3.org/1999/xlink" x="0px" y="0px"
	 viewBox="0 0 1000 1000" style="enable-background:new 0 0 1000 1000;" xml:space="preserve">
<style type="text/css">
	.st0{fill:#FFFFFF;}
</style>
<g id="wind">
	<path class="st0" d="M70.5,986.5C52,986.5,37,971.5,37,953V43.5C37,25,52,10,70.5,10C89,10,104,25,104,43.5V953
		C104,971.5,89,986.5,70.5,986.5z"/>
	<g>
		<polygon class="st0" points="513.8,460 643.2,445 643.2,94.2 513.8,79.2 		"/>
		<path class="st0" d="M910.7,125.2l-84.8-9.8v308.3l84.8-9.8c33.3-3.9,60.5-34.4,60.5-67.9V193.1
			C971.1,159.7,943.9,129.1,910.7,125.2z"/>
		<path class="st0" d="M331.2,57.9l-86-10c-33.3-3.9-60.5,20.4-60.5,53.9v335.5c0,33.5,27.2,57.7,60.5,53.9l86-10V57.9z"/>
	</g>
</g>
</svg>
