<?xml version="1.0" encoding="utf-8"?>
<!-- Generator: Adobe Illustrator 26.0.1, SVG Export Plug-In . SVG Version: 6.00 Build 0)  -->
<svg version="1.1" id="Layer_1" xmlns="http://www.w3.org/2000/svg" xmlns:xlink="http://www.w3.org/1999/xlink" x="0px" y="0px"
	 viewBox="0 0 1000 1000" style="enable-background:new 0 0 1000 1000;" xml:space="preserve">
<style type="text/css">
	.st0{fill:#FFFFFF;}
</style>
<g id="sunny_with_rain_clouds">
	<g>
		<g>
			<path class="st0" d="M614.9,96c-16.1,0.1-29.1,13.1-29,29.2l0.3,78.7c0.1,16.1,13.1,29.1,29.2,29.1c16.1-0.1,29.2-13.2,29-29.3
				l-0.2-78.7C644.1,108.9,631,95.9,614.9,96z"/>
			<path class="st0" d="M617.8,849.3c16.1,0,29.1-13.1,29-29.2l-0.3-78.7c-0.1-16.1-13.2-29.1-29.2-29.1
				c-16.1,0.1-29.2,13.2-29,29.3l0.3,78.7C588.6,836.4,601.7,849.4,617.8,849.3z"/>
			<path class="st0" d="M993,471.2c0-16.1-13.1-29.1-29.2-29l-78.6,0.3c-16.2,0.1-29.1,13.1-29.1,29.2c0,16.1,13.2,29.1,29.3,29
				l78.6-0.2C980.1,500.5,993.1,487.4,993,471.2z"/>
			<path class="st0" d="M883.8,738c11.3-11.4,11.3-29.9-0.1-41.2l-55.9-55.4c-11.5-11.4-29.9-11.3-41.2,0.1
				c-11.4,11.4-11.3,29.9,0.2,41.2l55.8,55.4C854,749.5,872.4,749.5,883.8,738z"/>
			<path class="st0" d="M881.7,205.3c-11.4-11.4-29.9-11.4-41.2,0.1L785,261.3c-11.4,11.4-11.2,29.9,0.2,41.2
				c11.4,11.3,29.9,11.3,41.2-0.2l55.4-55.8C893.2,235.1,893.1,216.7,881.7,205.3z"/>
		</g>
		<path class="st0" d="M614.2,648.1c96.9,0,175.4-78.5,175.4-175.4c0-96.9-78.5-175.4-175.4-175.4c-13.6,0-26.8,1.7-39.6,4.7
			c-24.4-80.9-99.4-139.8-188.3-139.8c-108.7,0-196.7,88-196.7,196.7c0,4,0.4,7.9,0.6,11.9c-11.8-3.2-24.2-5.1-37-5.1
			c-78,0-141.3,63.2-141.3,141.3c0,78,63.2,141.2,141.3,141.2H614.2z"/>
	</g>
	<path class="st0" d="M287.2,833.7c-31.6,25-22.8,76.6,7.7,102.8c30.5,26.3,82.8,27.3,102.8-7.7c24.4-42.6,63.6-185.7,63.6-185.7
		S325.7,803.2,287.2,833.7z"/>
</g>
</svg>
