<?xml version="1.0" encoding="utf-8"?>
<!-- Generator: Adobe Illustrator 26.0.1, SVG Export Plug-In . SVG Version: 6.00 Build 0)  -->
<svg version="1.1" id="Layer_1" xmlns="http://www.w3.org/2000/svg" xmlns:xlink="http://www.w3.org/1999/xlink" x="0px" y="0px"
	 viewBox="0 0 1000 1000" style="enable-background:new 0 0 1000 1000;" xml:space="preserve">
<style type="text/css">
	.st0{fill:#FFFFFF;}
</style>
<g id="suny_with_snow_clouds">
	<g>
		<g>
			<path class="st0" d="M612.9,44c-16.1,0.1-29.2,13.2-29.1,29.3l0.3,78.9c0.1,16.2,13.2,29.2,29.3,29.2
				c16.2-0.1,29.2-13.2,29.1-29.4l-0.3-78.9C642.2,57,629.1,43.9,612.9,44z"/>
			<path class="st0" d="M615.8,799.3c16.1,0,29.2-13.1,29.1-29.3l-0.3-78.9c-0.1-16.2-13.2-29.2-29.3-29.1
				c-16.2,0.1-29.2,13.2-29.1,29.4l0.3,78.9C586.5,786.3,599.7,799.4,615.8,799.3z"/>
			<path class="st0" d="M992,420.2c0-16.1-13.2-29.2-29.3-29.1l-78.8,0.3c-16.2,0.1-29.2,13.2-29.2,29.3
				c0.1,16.2,13.2,29.2,29.4,29.1l78.9-0.2C979.1,449.5,992.1,436.4,992,420.2z"/>
			<path class="st0" d="M882.4,687.6c11.4-11.4,11.3-29.9-0.1-41.3l-56-55.5c-11.5-11.4-30-11.3-41.3,0.1
				c-11.4,11.4-11.3,30,0.2,41.3l55.9,55.6C852.6,699.2,871.1,699.2,882.4,687.6z"/>
			<path class="st0" d="M880.4,153.6c-11.4-11.4-30-11.4-41.3,0.1l-55.5,56c-11.4,11.5-11.3,29.9,0.1,41.4
				c11.5,11.4,30,11.3,41.3-0.2l55.6-55.9C891.9,183.4,891.9,165,880.4,153.6z"/>
		</g>
		<path class="st0" d="M612.3,597.6c97.1,0,175.9-78.7,175.9-175.9c0-97.1-78.8-175.9-175.9-175.9c-13.7,0-26.9,1.7-39.7,4.7
			c-24.5-81.1-99.7-140.2-188.7-140.2c-108.9,0-197.2,88.3-197.2,197.2c0,4,0.3,7.9,0.6,12c-11.9-3.2-24.3-5.1-37.1-5.1
			c-78.2,0-141.6,63.4-141.6,141.6c0,78.2,63.4,141.6,141.6,141.6H612.3z"/>
	</g>
	<path class="st0" d="M503.4,778h-53.6l37.9-37.9c8.3-8.3,8.3-21.8,0-30.2c-8.4-8.4-21.9-8.4-30.2,0l-37.9,37.9v-53.6
		c0-11.7-9.6-21.3-21.3-21.3c-11.8,0-21.3,9.6-21.3,21.3v53.6l-37.9-37.9c-8.3-8.4-21.8-8.4-30.1,0c-8.3,8.3-8.3,21.8,0,30.2
		l37.9,37.9h-53.6c-11.8,0-21.3,9.5-21.3,21.3c0,11.8,9.5,21.3,21.3,21.3h53.6l-37.9,37.9c-8.3,8.3-8.3,21.8,0,30.1
		c8.3,8.3,21.8,8.3,30.1,0l37.9-37.9v53.6c0,11.8,9.5,21.3,21.3,21.3c11.7,0,21.3-9.5,21.3-21.3v-53.6l37.9,37.9
		c8.4,8.4,21.8,8.4,30.2,0.1c8.3-8.3,8.3-21.9,0-30.2l-37.9-37.9h53.6c11.8,0,21.3-9.5,21.3-21.3C524.7,787.5,515.1,778,503.4,778z"
		/>
</g>
</svg>
