<?xml version="1.0" encoding="utf-8"?>
<!-- Generator: Adobe Illustrator 26.0.1, SVG Export Plug-In . SVG Version: 6.00 Build 0)  -->
<svg version="1.1" id="Layer_1" xmlns="http://www.w3.org/2000/svg" xmlns:xlink="http://www.w3.org/1999/xlink" x="0px" y="0px"
	 viewBox="0 0 1000 1000" style="enable-background:new 0 0 1000 1000;" xml:space="preserve">
<style type="text/css">
	.st0{fill:#FFFFFF;}
</style>
<g id="sun_and_snow">
	<g>
		<g>
			<path class="st0" d="M610.2,104.1c-15.8,0-28.5,12.8-28.5,28.7l0.3,77.1c0.1,15.8,12.9,28.5,28.7,28.5
				c15.8-0.1,28.6-12.9,28.5-28.7l-0.2-77.1C638.9,116.7,626,104,610.2,104.1z"/>
			<path class="st0" d="M981,471.9c0-15.8-12.9-28.5-28.7-28.5l-77.1,0.3c-15.8,0-28.5,12.9-28.5,28.7c0.1,15.8,12.9,28.6,28.7,28.5
				l77.1-0.3C968.3,500.6,981.1,487.8,981,471.9z"/>
			<path class="st0" d="M873.8,733.6c11.1-11.2,11.1-29.3-0.1-40.4L819,638.8c-11.2-11.2-29.3-11.1-40.4,0.1
				c-11.2,11.2-11.1,29.4,0.2,40.4l54.7,54.3C844.6,744.9,862.7,744.8,873.8,733.6z"/>
			<path class="st0" d="M871.8,211.2c-11.2-11.1-29.3-11.1-40.4,0.2l-54.3,54.7c-11.2,11.2-11.1,29.3,0.1,40.4
				c11.2,11.1,29.3,11.1,40.4-0.2l54.3-54.7C883.1,240.5,883,222.3,871.8,211.2z"/>
		</g>
		<path class="st0" d="M609.6,645.4c95,0,172-77,172-172c0-95-77-172-172-172c-13.4,0-26.3,1.7-38.8,4.6
			c-23.9-79.3-97.5-137.1-184.6-137.1c-106.5,0-192.9,86.4-192.9,192.9c0,4,0.4,7.8,0.6,11.7c-11.6-3.1-23.8-5-36.4-5
			C81,368.4,19,430.4,19,506.9c0,76.5,62,138.5,138.5,138.5H609.6z"/>
	</g>
	<g>
		<path class="st0" d="M347.2,793.3h-46.9l33.2-33.2c7.3-7.3,7.3-19.1,0-26.4c-7.3-7.3-19.1-7.3-26.4,0l-33.2,33.2V720
			c0-10.3-8.4-18.7-18.7-18.7c-10.3,0-18.7,8.4-18.7,18.7v46.9l-33.2-33.2c-7.3-7.3-19.1-7.3-26.4,0c-7.3,7.3-7.3,19.1,0,26.4
			l33.2,33.2h-46.9c-10.3,0-18.7,8.4-18.7,18.7c0,10.3,8.4,18.7,18.7,18.7h46.9l-33.2,33.2c-7.3,7.2-7.3,19.1,0,26.4
			c7.3,7.2,19.1,7.2,26.4,0l33.2-33.2v47c0,10.3,8.4,18.7,18.7,18.7c10.3,0,18.7-8.4,18.7-18.7v-47l33.2,33.2
			c7.3,7.3,19.1,7.3,26.4,0c7.3-7.3,7.3-19.2,0-26.4l-33.2-33.2h47c10.3,0,18.7-8.4,18.7-18.7C365.9,801.7,357.5,793.3,347.2,793.3z
			"/>
		<path class="st0" d="M656.6,793.3h-46.9l33.2-33.2c7.3-7.3,7.3-19.1,0-26.4c-7.3-7.3-19.1-7.3-26.4,0l-33.2,33.2V720
			c0-10.3-8.4-18.7-18.7-18.7c-10.3,0-18.7,8.4-18.7,18.7v46.9l-33.2-33.2c-7.3-7.3-19.1-7.3-26.4,0c-7.3,7.3-7.3,19.1,0,26.4
			l33.2,33.2h-46.9c-10.3,0-18.7,8.4-18.7,18.7c0,10.3,8.4,18.7,18.7,18.7h47l-33.2,33.2c-7.3,7.2-7.3,19.1,0,26.4
			c7.3,7.2,19.1,7.2,26.4,0L546,857v47c0,10.3,8.4,18.7,18.7,18.7c10.3,0,18.7-8.4,18.7-18.7v-47l33.2,33.2c7.3,7.3,19.1,7.3,26.4,0
			c7.3-7.3,7.3-19.2,0-26.4l-33.2-33.2h47c10.3,0,18.7-8.4,18.7-18.7C675.3,801.7,667,793.3,656.6,793.3z"/>
	</g>
</g>
</svg>
