<?xml version="1.0" encoding="utf-8"?>
<!-- Generator: Adobe Illustrator 26.0.1, SVG Export Plug-In . SVG Version: 6.00 Build 0)  -->
<svg version="1.1" id="Layer_1" xmlns="http://www.w3.org/2000/svg" xmlns:xlink="http://www.w3.org/1999/xlink" x="0px" y="0px"
	 viewBox="0 0 1000 500" style="enable-background:new 0 0 1000 500;" xml:space="preserve">
<style type="text/css">
	.st0{fill:#FFFFFF;}
</style>
<g id="suny_with_clouds">
	<g>
		<path class="st0" d="M560,8c-10.4,0-18.8,8.5-18.8,18.9l0.2,50.8c0,10.4,8.5,18.8,18.9,18.8c10.4-0.1,18.8-8.5,18.8-18.9L579,26.8
			C578.9,16.4,570.5,8,560,8z"/>
		<path class="st0" d="M561.9,494.7c10.4,0,18.8-8.5,18.8-18.9l-0.2-50.8c0-10.4-8.5-18.8-18.9-18.8c-10.4,0-18.8,8.5-18.8,18.9
			l0.2,50.8C543.1,486.3,551.5,494.7,561.9,494.7z"/>
		<path class="st0" d="M804.3,250.4c0-10.4-8.5-18.8-18.9-18.8l-50.8,0.2c-10.4,0-18.8,8.5-18.8,18.9c0,10.4,8.5,18.8,18.9,18.7
			l50.8-0.1C796,269.3,804.4,260.8,804.3,250.4z"/>
		<path class="st0" d="M733.7,422.7c7.3-7.4,7.3-19.3-0.1-26.6l-36.1-35.8c-7.4-7.4-19.3-7.3-26.6,0.1c-7.4,7.4-7.3,19.3,0.1,26.6
			l36,35.8C714.5,430.2,726.4,430.1,733.7,422.7z"/>
		<path class="st0" d="M732.4,78.6c-7.4-7.3-19.3-7.3-26.6,0.1L670,114.8c-7.3,7.4-7.3,19.3,0.1,26.6c7.4,7.3,19.3,7.3,26.6-0.2
			l35.8-36C739.8,97.8,739.8,85.9,732.4,78.6z"/>
	</g>
	<path class="st0" d="M559.6,364.7c62.6,0,113.3-50.7,113.3-113.3c0-62.6-50.7-113.3-113.3-113.3c-8.8,0-17.3,1.1-25.6,3
		c-15.8-52.2-64.2-90.3-121.6-90.3c-70.2,0-127.1,56.9-127.1,127.1c0,2.6,0.2,5.1,0.4,7.7c-7.6-2.1-15.6-3.3-23.9-3.3
		c-50.4,0-91.3,40.9-91.3,91.3c0,50.4,40.9,91.2,91.3,91.2H559.6z"/>
</g>
</svg>
