<?xml version="1.0" encoding="utf-8"?>
<!-- Generator: Adobe Illustrator 26.0.1, SVG Export Plug-In . SVG Version: 6.00 Build 0)  -->
<svg version="1.1" id="Layer_1" xmlns="http://www.w3.org/2000/svg" xmlns:xlink="http://www.w3.org/1999/xlink" x="0px" y="0px"
	 viewBox="0 0 1000 1000" style="enable-background:new 0 0 1000 1000;" xml:space="preserve">
<style type="text/css">
	.st0{fill:#FFFFFF;}
</style>
<g id="soft_rain">
	<path class="st0" d="M747.8,617.4c117.1,0,212-94.9,212-212c0-117.1-94.9-212-212-212c-16.5,0-32.4,2.1-47.8,5.6
		C670.5,101.2,579.9,30,472.5,30c-131.3,0-237.7,106.4-237.7,237.7c0,4.8,0.4,9.6,0.7,14.4c-14.3-3.9-29.3-6.1-44.8-6.1
		C96.4,275.9,20,352.4,20,446.7c0,94.2,76.4,170.7,170.7,170.7H747.8z"/>
	<path class="st0" d="M189.2,842.6c-38.1,30.2-27.6,92.5,9.3,124.2c36.9,31.7,100.1,32.9,124.3-9.3c29.5-51.5,76.9-224.5,76.9-224.5
		S235.7,805.8,189.2,842.6z"/>
	<path class="st0" d="M534.3,842.6c-38.1,30.2-27.6,92.5,9.3,124.2c36.9,31.7,100.1,32.9,124.3-9.3c29.5-51.5,76.9-224.5,76.9-224.5
		S580.8,805.8,534.3,842.6z"/>
</g>
</svg>
