<?xml version="1.0" encoding="utf-8"?>
<!-- Generator: Adobe Illustrator 26.0.1, SVG Export Plug-In . SVG Version: 6.00 Build 0)  -->
<svg version="1.1" id="Layer_1" xmlns="http://www.w3.org/2000/svg" xmlns:xlink="http://www.w3.org/1999/xlink" x="0px" y="0px"
	 viewBox="0 0 1000 500" style="enable-background:new 0 0 1000 500;" xml:space="preserve">
<style type="text/css">
	.st0{fill:#FFFFFF;}
</style>
<g id="night_cloudi">
	<path class="st0" d="M559,487c79.9,0,144.8-64.8,144.8-144.8c0-79.9-64.8-144.8-144.8-144.8c-11.2,0-22.1,1.4-32.7,3.8
		c-20.1-66.8-82-115.4-155.3-115.4c-89.6,0-162.3,72.7-162.3,162.3c0,3.3,0.3,6.6,0.5,9.8c-9.8-2.6-20-4.2-30.6-4.2
		C114.2,253.8,62,306,62,370.4C62,434.8,114.2,487,178.6,487H559z"/>
	<path class="st0" d="M902.4,307.7c-112.5,0-203.7-91.2-203.7-203.7c0-34.8,8.8-67.5,24.1-96c-80.7,19.3-142.6,86.4-154.2,169.9
		c86.4,5,155.1,76.7,155.1,164.3c0,20.8-4,40.6-11.1,59c18.3,5.4,37.6,8.4,57.6,8.4c77.7,0,145.2-43.6,179.6-107.6
		C934.6,305.6,918.8,307.7,902.4,307.7z"/>
</g>
</svg>
