<?xml version="1.0" encoding="utf-8"?>
<!-- Generator: Adobe Illustrator 26.0.1, SVG Export Plug-In . SVG Version: 6.00 Build 0)  -->
<svg version="1.1" id="Layer_1" xmlns="http://www.w3.org/2000/svg" xmlns:xlink="http://www.w3.org/1999/xlink" x="0px" y="0px"
	 viewBox="0 0 1000 1000" style="enable-background:new 0 0 1000 1000;" xml:space="preserve">
<style type="text/css">
	.st0{fill:#FFFFFF;}
</style>
<g id="rain_with_flashing">
	<path class="st0" d="M711.9,512.8c96,0,173.9-77.9,173.9-173.9c0-96-77.9-173.9-173.9-173.9c-13.5,0-26.6,1.7-39.2,4.6
		C648.5,89.4,574.1,31,486.1,31c-107.7,0-195,87.3-195,195c0,4,0.3,7.9,0.6,11.8c-11.7-3.2-24-5-36.7-5c-77.3,0-140,62.7-140,140
		s62.7,140,140,140H711.9z"/>
	<g>
		<path class="st0" d="M261.4,698.1C230.1,722.9,238.8,774,269,800c30.2,26,82.1,27,101.9-7.6c24.2-42.2,63.1-184.1,63.1-184.1
			S299.6,667.9,261.4,698.1z"/>
		<polygon class="st0" points="564.2,591.5 714.8,591.5 639.5,734.1 758.9,734.1 552.2,978 600.4,830.4 462.9,830.4 		"/>
	</g>
</g>
</svg>
