<?xml version="1.0" encoding="utf-8"?>
<!-- Generator: Adobe Illustrator 26.0.1, SVG Export Plug-In . SVG Version: 6.00 Build 0)  -->
<svg version="1.1" id="Layer_1" xmlns="http://www.w3.org/2000/svg" xmlns:xlink="http://www.w3.org/1999/xlink" x="0px" y="0px"
	 viewBox="0 0 1000 1000" style="enable-background:new 0 0 1000 1000;" xml:space="preserve">
<style type="text/css">
	.st0{fill:#FFFFFF;}
</style>
<g id="raini_1_">
	<path class="st0" d="M770.2,600.5C885.5,600.5,979,507,979,391.7c0-115.3-93.5-208.8-208.8-208.8c-16.2,0-32,2-47.1,5.5
		C694.1,92.2,604.8,22,499.1,22C369.8,22,265,126.9,265,256.1c0,4.8,0.4,9.5,0.7,14.2c-14.1-3.8-28.8-6-44.1-6
		c-92.9,0-168.1,75.3-168.1,168.1s75.2,168.1,168.1,168.1H770.2z"/>
	<path class="st0" d="M382.7,846.8c-37.6,29.8-27.1,91.1,9.1,122.4c36.3,31.2,98.6,32.4,122.4-9.2c29.1-50.7,75.7-221,75.7-221
		S428.5,810.6,382.7,846.8z"/>
</g>
</svg>
