<?xml version="1.0" encoding="utf-8"?>
<!-- Generator: Adobe Illustrator 26.0.1, SVG Export Plug-In . SVG Version: 6.00 Build 0)  -->
<svg version="1.1" id="Layer_1" xmlns="http://www.w3.org/2000/svg" xmlns:xlink="http://www.w3.org/1999/xlink" x="0px" y="0px"
	 viewBox="0 0 1000 1000" style="enable-background:new 0 0 1000 1000;" xml:space="preserve">
<style type="text/css">
	.st0{fill:#FFFFFF;}
</style>
<g id="night_snow">
	<path class="st0" d="M559,669.2c89,0,161.1-72.1,161.1-161.1c0-89-72.2-161.1-161.1-161.1c-12.5,0-24.6,1.6-36.3,4.3
		c-22.4-74.3-91.3-128.4-172.9-128.4c-99.7,0-180.6,80.9-180.6,180.6c0,3.7,0.3,7.3,0.6,11c-10.9-2.9-22.2-4.7-34-4.7
		C64.1,409.8,6,467.9,6,539.5c0,71.7,58.1,129.7,129.7,129.7H559z"/>
	<g>
		<path class="st0" d="M313.4,807.7h-44l31.1-31.1c6.8-6.8,6.8-17.9,0-24.8c-6.8-6.8-17.9-6.8-24.7,0l-31.1,31.1V739
			c0-9.6-7.8-17.5-17.5-17.5c-9.7,0-17.5,7.8-17.5,17.5v44l-31.1-31.1c-6.8-6.9-17.9-6.9-24.7,0c-6.8,6.8-6.8,17.9,0,24.7l31.1,31.1
			H141c-9.7,0-17.5,7.8-17.5,17.5c0,9.6,7.8,17.5,17.5,17.5h44l-31.1,31.1c-6.8,6.8-6.8,17.9,0,24.7c6.8,6.8,17.9,6.8,24.7,0
			l31.1-31.1v44c0,9.6,7.8,17.5,17.5,17.5c9.7,0,17.5-7.8,17.5-17.5v-44l31.1,31.1c6.8,6.8,17.9,6.8,24.7,0c6.8-6.8,6.8-18,0-24.7
			l-31.1-31.1h44c9.7,0,17.5-7.8,17.5-17.5C330.8,815.6,323,807.7,313.4,807.7z"/>
		<path class="st0" d="M603.1,807.7h-44l31-31.1c6.9-6.8,6.9-17.9,0-24.8c-6.8-6.8-17.9-6.8-24.7,0l-31,31.1V739
			c0-9.6-7.8-17.5-17.5-17.5c-9.7,0-17.5,7.8-17.5,17.5v44l-31.1-31.1c-6.8-6.9-17.9-6.9-24.7,0c-6.8,6.8-6.8,17.9,0,24.7l31,31.1
			h-43.9c-9.7,0-17.5,7.8-17.5,17.5c0,9.6,7.8,17.5,17.5,17.5h44l-31.1,31.1c-6.8,6.8-6.8,17.9,0,24.7c6.8,6.8,17.9,6.8,24.7,0
			l31.1-31.1v44c0,9.6,7.8,17.5,17.5,17.5c9.6,0,17.5-7.8,17.5-17.5v-44l31.1,31.1c6.9,6.8,17.9,6.8,24.7,0c6.9-6.8,6.9-18,0-24.7
			l-31.1-31.1h44c9.6,0,17.5-7.8,17.5-17.5C620.6,815.6,612.8,807.7,603.1,807.7z"/>
	</g>
	<path class="st0" d="M941.2,469.8c-125.2,0-226.6-101.5-226.6-226.7c0-38.7,9.7-75.1,26.8-106.9c-89.8,21.4-158.7,96.2-171.5,189
		c96.1,5.6,172.6,85.4,172.6,182.9c0,23.1-4.5,45.2-12.3,65.6c20.3,6,41.8,9.3,64,9.3c86.5,0,161.6-48.5,199.8-119.8
		C977,467.4,959.4,469.8,941.2,469.8z"/>
</g>
</svg>
