<?xml version="1.0" encoding="utf-8"?>
<!-- Generator: Adobe Illustrator 26.0.1, SVG Export Plug-In . SVG Version: 6.00 Build 0)  -->
<svg version="1.1" id="Layer_1" xmlns="http://www.w3.org/2000/svg" xmlns:xlink="http://www.w3.org/1999/xlink" x="0px" y="0px"
	 viewBox="0 0 1000 1000" style="enable-background:new 0 0 1000 1000;" xml:space="preserve">
<style type="text/css">
	.st0{fill:#FFFFFF;}
</style>
<g>
	<path class="st0" d="M852.6,725.2c-0.2,0-0.4,0-0.6,0c0.3-3.9,0.6-7.9,0.6-11.9c0-79.8-64.6-144.4-144.4-144.4
		c-24.5,0-47.4,6.1-67.6,16.8c-25.9-105.8-121.1-184.4-234.8-184.4c-133.7,0-242,108.4-242,242c0,3.4,0.4,6.8,0.5,10.1
		c-2.9-0.2-5.7-0.4-8.6-0.4c-70.2,0-127.1,56.9-127.1,127.1c0,70.2,56.9,127.1,127.1,127.1h696.9c50.3,0,91-40.7,91-91
		C943.7,766,902.9,725.2,852.6,725.2z"/>
	<path class="st0" d="M926.3,409.1c-3.8,0-7.4,0.5-11,1.1c0.8-5.6,1.4-11.3,1.4-17.1c0-64.4-52.2-116.7-116.7-116.7
		c-52.2,0-96.4,34.3-111.3,81.7c-8.3-2.6-17.1-4-26.3-4c-46.3,0-84.4,35.3-88.8,80.5c31.9,25.6,57.8,58.6,75.4,96.8
		c4.4,0.7,8.8,1.1,13.4,1.1h263.9c34.1,0,61.6-27.6,61.6-61.7C988,436.7,960.4,409.1,926.3,409.1z"/>
	<path class="st0" d="M66.2,418H261c41.8-27,91.5-42.6,144.8-42.6c22.9,0,45.2,3,66.5,8.5c5.8-10,9.3-21.4,9.3-33.8
		c0-35-26.5-63.5-60.5-67.2c0-0.3,0-0.5,0-0.8c0-70.3-57-127.3-127.3-127.3c-55.9,0-103.3,36.1-120.4,86.2
		c-8.8-3.4-18.4-5.4-28.5-5.4c-37.2,0-68.3,25.8-76.6,60.6h-2.2v18c0,0.1,0,0.2,0,0.2c0,0.1,0,0.2,0,0.3v17.2
		C42.3,331.7,23,351,23,374.9C23,398.7,42.3,418,66.2,418z"/>
</g>
</svg>
