<?xml version="1.0" encoding="utf-8"?>
<!-- Generator: Adobe Illustrator 26.0.1, SVG Export Plug-In . SVG Version: 6.00 Build 0)  -->
<svg version="1.1" id="Layer_1" xmlns="http://www.w3.org/2000/svg" xmlns:xlink="http://www.w3.org/1999/xlink" x="0px" y="0px"
	 viewBox="0 0 1000 1000" style="enable-background:new 0 0 1000 1000;" xml:space="preserve">
<style type="text/css">
	.st0{fill:#FFFFFF;}
</style>
<g id="flashing">
	<path class="st0" d="M697.9,505.1c99.5,0,180.1-80.7,180.1-180.1c0-99.5-80.7-180.1-180.1-180.1c-14,0-27.6,1.8-40.6,4.8
		C632.2,66.5,555.2,6,464,6C352.4,6,262,96.4,262,208c0,4.1,0.4,8.2,0.6,12.2c-12.1-3.3-24.9-5.2-38.1-5.2c-80.1,0-145,64.9-145,145
		s64.9,145.1,145,145.1H697.9z"/>
	<polygon class="st0" points="441.3,586.7 597.3,586.7 519.3,734.3 643,734.3 428.9,987 478.8,834.1 336.3,834.1 	"/>
</g>
</svg>
